<?xml version="1.0" standalone="no"?>
<!DOCTYPE svg PUBLIC "-//W3C//DTD SVG 20010904//EN"
 "http://www.w3.org/TR/2001/REC-SVG-20010904/DTD/svg10.dtd">
<svg version="1.0" xmlns="http://www.w3.org/2000/svg"
 width="500.000000pt" height="500.000000pt" viewBox="0 0 500.000000 500.000000"
 preserveAspectRatio="xMidYMid meet">

<g transform="translate(0.000000,500.000000) scale(0.100000,-0.100000)"
fill="#000000" stroke="none">
<path d="M2260 4988 c-490 -51 -945 -237 -1330 -543 -95 -75 -288 -267 -367
-365 -299 -371 -477 -787 -545 -1275 -16 -116 -16 -494 0 -610 68 -488 246
-904 545 -1275 79 -98 272 -290 367 -365 450 -358 1007 -555 1570 -555 562 0
1117 196 1570 554 94 75 286 267 366 366 299 370 477 786 546 1275 19 137 16
504 -5 645 -74 479 -247 876 -540 1240 -79 98 -272 290 -367 365 -264 211
-584 374 -906 465 -274 77 -627 107 -904 78z m-1219 -1178 c30 -5 95 -31 146
-56 50 -26 98 -44 107 -41 8 3 22 22 30 42 9 21 26 39 41 45 34 13 367 13 436
0 181 -34 292 -160 306 -347 5 -60 2 -78 -17 -117 -40 -83 -149 -153 -283
-180 -42 -9 -86 -16 -98 -16 -35 0 -83 -28 -106 -63 -13 -18 -26 -61 -32 -102
-23 -153 -16 -143 -116 -152 -73 -6 -110 7 -133 47 -21 37 -38 37 -112 0 -201
-102 -458 -72 -580 68 -41 46 -70 116 -70 168 0 36 8 40 109 50 85 9 103 2
129 -51 44 -91 162 -87 162 5 0 43 -26 67 -130 121 -111 56 -186 121 -221 189
-32 61 -33 167 -2 225 69 130 250 199 434 165z m2419 -24 c25 -9 77 -32 115
-52 39 -19 77 -32 85 -29 8 3 24 25 35 48 l20 42 88 3 c99 3 113 -3 122 -51
18 -97 28 -119 59 -132 46 -19 71 -5 166 95 l86 90 76 0 c41 0 96 -3 121 -6
l46 -7 -51 -76 c-28 -42 -75 -108 -104 -148 -29 -39 -67 -97 -85 -128 -31 -55
-32 -60 -20 -104 6 -25 54 -116 105 -201 51 -85 110 -185 130 -221 l36 -66
-31 -7 c-17 -3 -70 -6 -116 -6 -97 0 -94 -2 -193 127 -62 81 -92 102 -132 94
-45 -10 -65 -35 -77 -98 -17 -89 -24 -107 -51 -120 -32 -16 -381 -17 -415 -1
-13 6 -47 46 -75 89 -62 95 -90 119 -141 119 -59 0 -80 -30 -94 -129 -10 -74
-29 -91 -107 -93 -144 -4 -309 2 -325 11 -10 5 -34 35 -53 67 -23 37 -49 64
-73 77 -53 27 -141 33 -210 13 -54 -16 -58 -19 -92 -81 -43 -76 -73 -91 -167
-81 -77 9 -88 14 -88 38 0 11 20 97 44 191 24 95 47 196 51 224 4 33 17 67 35
91 36 51 51 79 126 247 83 185 83 185 181 185 53 0 85 -5 99 -15 12 -8 52 -82
89 -166 37 -84 76 -167 87 -185 36 -61 107 -62 128 0 5 17 17 96 25 176 8 80
18 153 21 162 3 10 17 21 32 24 15 3 32 7 37 10 6 2 100 2 210 0 157 -2 210
-6 245 -20z m-515 -1344 c22 1 144 2 270 2 215 1 235 -1 305 -22 162 -51 278
-148 349 -294 51 -103 71 -193 71 -328 0 -135 -20 -225 -71 -329 -56 -114
-138 -196 -251 -249 -115 -55 -154 -62 -388 -69 -166 -4 -213 -2 -247 10 -36
12 -49 12 -95 0 -43 -11 -126 -13 -428 -8 -206 3 -415 4 -465 2 -238 -6 -672
3 -720 15 -44 12 -50 17 -58 48 -14 53 -20 873 -9 1040 9 118 14 147 28 157
20 15 220 18 242 5 23 -15 33 -134 42 -497 9 -401 16 -450 67 -475 38 -18 294
-26 351 -11 48 13 71 41 83 104 5 23 13 200 19 392 10 358 19 458 44 483 23
23 146 30 491 26 182 -2 348 -3 370 -2z"/>
<path d="M1665 3562 c-17 -11 -45 -60 -45 -76 0 -20 58 -86 76 -86 71 0 110
95 59 145 -24 24 -69 33 -90 17z"/>
<path d="M954 3539 c-9 -10 -12 -19 -7 -19 6 0 13 -9 16 -20 3 -11 16 -24 30
-29 14 -5 28 -15 32 -20 3 -6 17 -11 31 -11 14 0 33 -4 42 -9 11 -6 23 -5 35
4 16 12 15 13 -10 20 -25 6 -83 60 -83 76 0 6 -23 15 -57 24 -6 2 -19 -6 -29
-16z"/>
<path d="M2565 2153 c-44 -7 -65 -30 -65 -73 0 -48 30 -86 78 -100 20 -5 87
-10 148 -10 128 0 137 5 133 72 -4 58 -16 83 -48 98 -26 13 -188 21 -246 13z"/>
<path d="M3365 2121 c-31 -14 -61 -52 -75 -96 -15 -46 -20 -351 -7 -427 15
-90 94 -150 165 -127 96 30 151 132 160 291 8 159 -20 258 -92 327 -28 27 -45
35 -83 37 -26 2 -57 0 -68 -5z"/>
<path d="M2580 1661 c-76 -15 -110 -52 -110 -118 0 -30 7 -50 24 -70 24 -28
26 -28 153 -31 163 -5 195 4 217 58 19 47 20 80 5 133 l-10 37 -122 -1 c-67
-1 -138 -4 -157 -8z"/>
</g>
</svg>
